<mxfile host="app.diagrams.net" modified="2023-08-11T18:19:27.027Z" agent="Mozilla/5.0 (Windows NT 10.0; Win64; x64) AppleWebKit/537.36 (KHTML, like Gecko) Chrome/115.0.0.0 Safari/537.36" etag="1Qq3iPvLjxivBhi9vT6e" version="21.6.8" type="device">
  <diagram name="Página-1" id="Rrnj1-4y-pTIxCOdOpEf">
    <mxGraphModel dx="1050" dy="574" grid="1" gridSize="10" guides="1" tooltips="1" connect="1" arrows="1" fold="1" page="1" pageScale="1" pageWidth="827" pageHeight="1169" math="0" shadow="0">
      <root>
        <mxCell id="0" />
        <mxCell id="1" parent="0" />
        <mxCell id="rD9o9LRUl3aZi4QYc7Sl-25" value="" style="edgeStyle=orthogonalEdgeStyle;rounded=0;orthogonalLoop=1;jettySize=auto;html=1;endArrow=none;endFill=0;" parent="1" source="rD9o9LRUl3aZi4QYc7Sl-1" target="rD9o9LRUl3aZi4QYc7Sl-24" edge="1">
          <mxGeometry relative="1" as="geometry" />
        </mxCell>
        <mxCell id="rD9o9LRUl3aZi4QYc7Sl-49" value="" style="edgeStyle=orthogonalEdgeStyle;rounded=0;orthogonalLoop=1;jettySize=auto;html=1;endArrow=none;endFill=0;" parent="1" source="rD9o9LRUl3aZi4QYc7Sl-1" target="rD9o9LRUl3aZi4QYc7Sl-44" edge="1">
          <mxGeometry relative="1" as="geometry" />
        </mxCell>
        <mxCell id="rD9o9LRUl3aZi4QYc7Sl-1" value="Usuario" style="rounded=0;whiteSpace=wrap;html=1;" parent="1" vertex="1">
          <mxGeometry x="128" y="230" width="110" height="40" as="geometry" />
        </mxCell>
        <mxCell id="rD9o9LRUl3aZi4QYc7Sl-2" value="TiposDeUsuário" style="rounded=0;whiteSpace=wrap;html=1;" parent="1" vertex="1">
          <mxGeometry x="128" y="65" width="110" height="40" as="geometry" />
        </mxCell>
        <mxCell id="rD9o9LRUl3aZi4QYc7Sl-3" value="Eventos" style="rounded=0;whiteSpace=wrap;html=1;" parent="1" vertex="1">
          <mxGeometry x="348" y="380" width="110" height="40" as="geometry" />
        </mxCell>
        <mxCell id="rD9o9LRUl3aZi4QYc7Sl-4" value="TiposDeEventos" style="rounded=0;whiteSpace=wrap;html=1;" parent="1" vertex="1">
          <mxGeometry x="589" y="380" width="110" height="40" as="geometry" />
        </mxCell>
        <mxCell id="rD9o9LRUl3aZi4QYc7Sl-26" value="" style="edgeStyle=orthogonalEdgeStyle;rounded=0;orthogonalLoop=1;jettySize=auto;html=1;endArrow=none;endFill=0;" parent="1" source="rD9o9LRUl3aZi4QYc7Sl-7" target="rD9o9LRUl3aZi4QYc7Sl-24" edge="1">
          <mxGeometry relative="1" as="geometry" />
        </mxCell>
        <mxCell id="rD9o9LRUl3aZi4QYc7Sl-7" value="PresencasEvento" style="rounded=0;whiteSpace=wrap;html=1;" parent="1" vertex="1">
          <mxGeometry x="348" y="230" width="110" height="40" as="geometry" />
        </mxCell>
        <mxCell id="rD9o9LRUl3aZi4QYc7Sl-8" value="Instituicao" style="rounded=0;whiteSpace=wrap;html=1;" parent="1" vertex="1">
          <mxGeometry x="348" y="545" width="110" height="40" as="geometry" />
        </mxCell>
        <mxCell id="rD9o9LRUl3aZi4QYc7Sl-47" value="" style="edgeStyle=orthogonalEdgeStyle;rounded=0;orthogonalLoop=1;jettySize=auto;html=1;endArrow=none;endFill=0;" parent="1" source="rD9o9LRUl3aZi4QYc7Sl-9" target="rD9o9LRUl3aZi4QYc7Sl-43" edge="1">
          <mxGeometry relative="1" as="geometry" />
        </mxCell>
        <mxCell id="rD9o9LRUl3aZi4QYc7Sl-50" value="" style="edgeStyle=orthogonalEdgeStyle;rounded=0;orthogonalLoop=1;jettySize=auto;html=1;endArrow=none;endFill=0;" parent="1" source="rD9o9LRUl3aZi4QYc7Sl-9" target="rD9o9LRUl3aZi4QYc7Sl-44" edge="1">
          <mxGeometry relative="1" as="geometry" />
        </mxCell>
        <mxCell id="rD9o9LRUl3aZi4QYc7Sl-9" value="Comentario" style="rounded=0;whiteSpace=wrap;html=1;" parent="1" vertex="1">
          <mxGeometry x="128" y="380" width="110" height="40" as="geometry" />
        </mxCell>
        <mxCell id="rD9o9LRUl3aZi4QYc7Sl-41" value="" style="edgeStyle=orthogonalEdgeStyle;rounded=0;orthogonalLoop=1;jettySize=auto;html=1;endArrow=none;endFill=0;" parent="1" source="rD9o9LRUl3aZi4QYc7Sl-18" target="rD9o9LRUl3aZi4QYc7Sl-2" edge="1">
          <mxGeometry relative="1" as="geometry" />
        </mxCell>
        <mxCell id="rD9o9LRUl3aZi4QYc7Sl-42" value="" style="edgeStyle=orthogonalEdgeStyle;rounded=0;orthogonalLoop=1;jettySize=auto;html=1;endArrow=none;endFill=0;" parent="1" source="rD9o9LRUl3aZi4QYc7Sl-18" target="rD9o9LRUl3aZi4QYc7Sl-1" edge="1">
          <mxGeometry relative="1" as="geometry" />
        </mxCell>
        <mxCell id="rD9o9LRUl3aZi4QYc7Sl-18" value="Possui" style="rhombus;whiteSpace=wrap;html=1;" parent="1" vertex="1">
          <mxGeometry x="158" y="145" width="50" height="50" as="geometry" />
        </mxCell>
        <mxCell id="rD9o9LRUl3aZi4QYc7Sl-24" value="Possui" style="rhombus;whiteSpace=wrap;html=1;" parent="1" vertex="1">
          <mxGeometry x="268" y="225" width="50" height="50" as="geometry" />
        </mxCell>
        <mxCell id="rD9o9LRUl3aZi4QYc7Sl-29" style="edgeStyle=orthogonalEdgeStyle;rounded=0;orthogonalLoop=1;jettySize=auto;html=1;entryX=0.5;entryY=1;entryDx=0;entryDy=0;endArrow=none;endFill=0;" parent="1" source="rD9o9LRUl3aZi4QYc7Sl-27" target="rD9o9LRUl3aZi4QYc7Sl-7" edge="1">
          <mxGeometry relative="1" as="geometry" />
        </mxCell>
        <mxCell id="rD9o9LRUl3aZi4QYc7Sl-30" style="edgeStyle=orthogonalEdgeStyle;rounded=0;orthogonalLoop=1;jettySize=auto;html=1;endArrow=none;endFill=0;" parent="1" source="rD9o9LRUl3aZi4QYc7Sl-27" target="rD9o9LRUl3aZi4QYc7Sl-3" edge="1">
          <mxGeometry relative="1" as="geometry" />
        </mxCell>
        <mxCell id="rD9o9LRUl3aZi4QYc7Sl-27" value="Possui" style="rhombus;whiteSpace=wrap;html=1;" parent="1" vertex="1">
          <mxGeometry x="378" y="300" width="50" height="50" as="geometry" />
        </mxCell>
        <mxCell id="rD9o9LRUl3aZi4QYc7Sl-32" value="" style="edgeStyle=orthogonalEdgeStyle;rounded=0;orthogonalLoop=1;jettySize=auto;html=1;endArrow=none;endFill=0;" parent="1" source="rD9o9LRUl3aZi4QYc7Sl-31" target="rD9o9LRUl3aZi4QYc7Sl-4" edge="1">
          <mxGeometry relative="1" as="geometry" />
        </mxCell>
        <mxCell id="rD9o9LRUl3aZi4QYc7Sl-33" value="" style="edgeStyle=orthogonalEdgeStyle;rounded=0;orthogonalLoop=1;jettySize=auto;html=1;endArrow=none;endFill=0;" parent="1" source="rD9o9LRUl3aZi4QYc7Sl-31" target="rD9o9LRUl3aZi4QYc7Sl-3" edge="1">
          <mxGeometry relative="1" as="geometry" />
        </mxCell>
        <mxCell id="rD9o9LRUl3aZi4QYc7Sl-31" value="Possui" style="rhombus;whiteSpace=wrap;html=1;" parent="1" vertex="1">
          <mxGeometry x="499" y="375" width="50" height="50" as="geometry" />
        </mxCell>
        <mxCell id="rD9o9LRUl3aZi4QYc7Sl-38" value="" style="edgeStyle=orthogonalEdgeStyle;rounded=0;orthogonalLoop=1;jettySize=auto;html=1;endArrow=none;endFill=0;" parent="1" source="rD9o9LRUl3aZi4QYc7Sl-37" target="rD9o9LRUl3aZi4QYc7Sl-8" edge="1">
          <mxGeometry relative="1" as="geometry" />
        </mxCell>
        <mxCell id="rD9o9LRUl3aZi4QYc7Sl-40" style="edgeStyle=orthogonalEdgeStyle;rounded=0;orthogonalLoop=1;jettySize=auto;html=1;entryX=0.5;entryY=1;entryDx=0;entryDy=0;endArrow=none;endFill=0;" parent="1" source="rD9o9LRUl3aZi4QYc7Sl-37" target="rD9o9LRUl3aZi4QYc7Sl-3" edge="1">
          <mxGeometry relative="1" as="geometry" />
        </mxCell>
        <mxCell id="rD9o9LRUl3aZi4QYc7Sl-37" value="Possui" style="rhombus;whiteSpace=wrap;html=1;" parent="1" vertex="1">
          <mxGeometry x="378" y="455" width="50" height="50" as="geometry" />
        </mxCell>
        <mxCell id="rD9o9LRUl3aZi4QYc7Sl-45" value="" style="edgeStyle=orthogonalEdgeStyle;rounded=0;orthogonalLoop=1;jettySize=auto;html=1;endArrow=none;endFill=0;" parent="1" source="rD9o9LRUl3aZi4QYc7Sl-43" target="rD9o9LRUl3aZi4QYc7Sl-3" edge="1">
          <mxGeometry relative="1" as="geometry" />
        </mxCell>
        <mxCell id="rD9o9LRUl3aZi4QYc7Sl-43" value="Possui" style="rhombus;whiteSpace=wrap;html=1;" parent="1" vertex="1">
          <mxGeometry x="268" y="375" width="50" height="50" as="geometry" />
        </mxCell>
        <mxCell id="rD9o9LRUl3aZi4QYc7Sl-44" value="Possui" style="rhombus;whiteSpace=wrap;html=1;" parent="1" vertex="1">
          <mxGeometry x="158" y="300" width="50" height="50" as="geometry" />
        </mxCell>
        <mxCell id="rD9o9LRUl3aZi4QYc7Sl-51" value="1" style="text;html=1;align=center;verticalAlign=middle;resizable=0;points=[];autosize=1;strokeColor=none;fillColor=none;" parent="1" vertex="1">
          <mxGeometry x="178" y="105" width="30" height="30" as="geometry" />
        </mxCell>
        <mxCell id="rD9o9LRUl3aZi4QYc7Sl-52" value="N" style="text;html=1;align=center;verticalAlign=middle;resizable=0;points=[];autosize=1;strokeColor=none;fillColor=none;" parent="1" vertex="1">
          <mxGeometry x="178" y="205" width="30" height="30" as="geometry" />
        </mxCell>
        <mxCell id="rD9o9LRUl3aZi4QYc7Sl-53" value="N" style="text;html=1;align=center;verticalAlign=middle;resizable=0;points=[];autosize=1;strokeColor=none;fillColor=none;" parent="1" vertex="1">
          <mxGeometry x="318" y="225" width="30" height="30" as="geometry" />
        </mxCell>
        <mxCell id="rD9o9LRUl3aZi4QYc7Sl-54" value="1" style="text;html=1;align=center;verticalAlign=middle;resizable=0;points=[];autosize=1;strokeColor=none;fillColor=none;" parent="1" vertex="1">
          <mxGeometry x="238" y="225" width="30" height="30" as="geometry" />
        </mxCell>
        <mxCell id="rD9o9LRUl3aZi4QYc7Sl-55" value="N" style="text;html=1;align=center;verticalAlign=middle;resizable=0;points=[];autosize=1;strokeColor=none;fillColor=none;" parent="1" vertex="1">
          <mxGeometry x="403" y="355" width="30" height="30" as="geometry" />
        </mxCell>
        <mxCell id="rD9o9LRUl3aZi4QYc7Sl-56" value="N" style="text;html=1;align=center;verticalAlign=middle;resizable=0;points=[];autosize=1;strokeColor=none;fillColor=none;" parent="1" vertex="1">
          <mxGeometry x="403" y="270" width="30" height="30" as="geometry" />
        </mxCell>
        <mxCell id="rD9o9LRUl3aZi4QYc7Sl-57" value="1" style="text;html=1;align=center;verticalAlign=middle;resizable=0;points=[];autosize=1;strokeColor=none;fillColor=none;" parent="1" vertex="1">
          <mxGeometry x="458" y="375" width="30" height="30" as="geometry" />
        </mxCell>
        <mxCell id="rD9o9LRUl3aZi4QYc7Sl-58" value="1" style="text;html=1;align=center;verticalAlign=middle;resizable=0;points=[];autosize=1;strokeColor=none;fillColor=none;" parent="1" vertex="1">
          <mxGeometry x="559" y="375" width="30" height="30" as="geometry" />
        </mxCell>
        <mxCell id="rD9o9LRUl3aZi4QYc7Sl-59" value="1" style="text;html=1;align=center;verticalAlign=middle;resizable=0;points=[];autosize=1;strokeColor=none;fillColor=none;" parent="1" vertex="1">
          <mxGeometry x="398" y="515" width="30" height="30" as="geometry" />
        </mxCell>
        <mxCell id="rD9o9LRUl3aZi4QYc7Sl-60" value="N" style="text;html=1;align=center;verticalAlign=middle;resizable=0;points=[];autosize=1;strokeColor=none;fillColor=none;" parent="1" vertex="1">
          <mxGeometry x="398" y="415" width="30" height="30" as="geometry" />
        </mxCell>
        <mxCell id="rD9o9LRUl3aZi4QYc7Sl-61" value="1" style="text;html=1;align=center;verticalAlign=middle;resizable=0;points=[];autosize=1;strokeColor=none;fillColor=none;" parent="1" vertex="1">
          <mxGeometry x="184" y="270" width="30" height="30" as="geometry" />
        </mxCell>
        <mxCell id="rD9o9LRUl3aZi4QYc7Sl-62" value="N" style="text;html=1;align=center;verticalAlign=middle;resizable=0;points=[];autosize=1;strokeColor=none;fillColor=none;" parent="1" vertex="1">
          <mxGeometry x="184" y="353" width="30" height="30" as="geometry" />
        </mxCell>
        <mxCell id="rD9o9LRUl3aZi4QYc7Sl-63" value="N" style="text;html=1;align=center;verticalAlign=middle;resizable=0;points=[];autosize=1;strokeColor=none;fillColor=none;" parent="1" vertex="1">
          <mxGeometry x="234" y="373" width="30" height="30" as="geometry" />
        </mxCell>
        <mxCell id="rD9o9LRUl3aZi4QYc7Sl-64" value="1" style="text;html=1;align=center;verticalAlign=middle;resizable=0;points=[];autosize=1;strokeColor=none;fillColor=none;" parent="1" vertex="1">
          <mxGeometry x="318" y="373" width="30" height="30" as="geometry" />
        </mxCell>
        <mxCell id="rD9o9LRUl3aZi4QYc7Sl-65" value="Conceitual" style="text;html=1;align=center;verticalAlign=middle;resizable=0;points=[];autosize=1;strokeColor=#d79b00;fillColor=#ffe6cc;" parent="1" vertex="1">
          <mxGeometry x="374" y="640" width="80" height="30" as="geometry" />
        </mxCell>
        <mxCell id="rD9o9LRUl3aZi4QYc7Sl-66" value="Usuario" style="shape=table;startSize=30;container=1;collapsible=1;childLayout=tableLayout;fixedRows=1;rowLines=0;fontStyle=1;align=center;resizeLast=1;html=1;whiteSpace=wrap;fillColor=#fff2cc;strokeColor=#d6b656;" parent="1" vertex="1">
          <mxGeometry x="218" y="910" width="180" height="180" as="geometry" />
        </mxCell>
        <mxCell id="rD9o9LRUl3aZi4QYc7Sl-67" value="" style="shape=tableRow;horizontal=0;startSize=0;swimlaneHead=0;swimlaneBody=0;fillColor=none;collapsible=0;dropTarget=0;points=[[0,0.5],[1,0.5]];portConstraint=eastwest;top=0;left=0;right=0;bottom=0;html=1;" parent="rD9o9LRUl3aZi4QYc7Sl-66" vertex="1">
          <mxGeometry y="30" width="180" height="30" as="geometry" />
        </mxCell>
        <mxCell id="rD9o9LRUl3aZi4QYc7Sl-68" value="PK" style="shape=partialRectangle;connectable=0;fillColor=none;top=0;left=0;bottom=0;right=0;fontStyle=1;overflow=hidden;html=1;whiteSpace=wrap;" parent="rD9o9LRUl3aZi4QYc7Sl-67" vertex="1">
          <mxGeometry width="60" height="30" as="geometry">
            <mxRectangle width="60" height="30" as="alternateBounds" />
          </mxGeometry>
        </mxCell>
        <mxCell id="rD9o9LRUl3aZi4QYc7Sl-69" value="IdUsuario" style="shape=partialRectangle;connectable=0;fillColor=none;top=0;left=0;bottom=0;right=0;align=left;spacingLeft=6;fontStyle=5;overflow=hidden;html=1;whiteSpace=wrap;" parent="rD9o9LRUl3aZi4QYc7Sl-67" vertex="1">
          <mxGeometry x="60" width="120" height="30" as="geometry">
            <mxRectangle width="120" height="30" as="alternateBounds" />
          </mxGeometry>
        </mxCell>
        <mxCell id="rD9o9LRUl3aZi4QYc7Sl-70" value="" style="shape=tableRow;horizontal=0;startSize=0;swimlaneHead=0;swimlaneBody=0;fillColor=none;collapsible=0;dropTarget=0;points=[[0,0.5],[1,0.5]];portConstraint=eastwest;top=0;left=0;right=0;bottom=1;html=1;" parent="rD9o9LRUl3aZi4QYc7Sl-66" vertex="1">
          <mxGeometry y="60" width="180" height="30" as="geometry" />
        </mxCell>
        <mxCell id="rD9o9LRUl3aZi4QYc7Sl-71" value="FK" style="shape=partialRectangle;connectable=0;fillColor=none;top=0;left=0;bottom=0;right=0;fontStyle=1;overflow=hidden;html=1;whiteSpace=wrap;" parent="rD9o9LRUl3aZi4QYc7Sl-70" vertex="1">
          <mxGeometry width="60" height="30" as="geometry">
            <mxRectangle width="60" height="30" as="alternateBounds" />
          </mxGeometry>
        </mxCell>
        <mxCell id="rD9o9LRUl3aZi4QYc7Sl-72" value="IdTiposDeUsuário" style="shape=partialRectangle;connectable=0;fillColor=none;top=0;left=0;bottom=0;right=0;align=left;spacingLeft=6;fontStyle=5;overflow=hidden;html=1;whiteSpace=wrap;" parent="rD9o9LRUl3aZi4QYc7Sl-70" vertex="1">
          <mxGeometry x="60" width="120" height="30" as="geometry">
            <mxRectangle width="120" height="30" as="alternateBounds" />
          </mxGeometry>
        </mxCell>
        <mxCell id="rD9o9LRUl3aZi4QYc7Sl-73" value="" style="shape=tableRow;horizontal=0;startSize=0;swimlaneHead=0;swimlaneBody=0;fillColor=none;collapsible=0;dropTarget=0;points=[[0,0.5],[1,0.5]];portConstraint=eastwest;top=0;left=0;right=0;bottom=0;html=1;" parent="rD9o9LRUl3aZi4QYc7Sl-66" vertex="1">
          <mxGeometry y="90" width="180" height="30" as="geometry" />
        </mxCell>
        <mxCell id="rD9o9LRUl3aZi4QYc7Sl-74" value="" style="shape=partialRectangle;connectable=0;fillColor=none;top=0;left=0;bottom=0;right=0;editable=1;overflow=hidden;html=1;whiteSpace=wrap;" parent="rD9o9LRUl3aZi4QYc7Sl-73" vertex="1">
          <mxGeometry width="60" height="30" as="geometry">
            <mxRectangle width="60" height="30" as="alternateBounds" />
          </mxGeometry>
        </mxCell>
        <mxCell id="rD9o9LRUl3aZi4QYc7Sl-75" value="Nome" style="shape=partialRectangle;connectable=0;fillColor=none;top=0;left=0;bottom=0;right=0;align=left;spacingLeft=6;overflow=hidden;html=1;whiteSpace=wrap;" parent="rD9o9LRUl3aZi4QYc7Sl-73" vertex="1">
          <mxGeometry x="60" width="120" height="30" as="geometry">
            <mxRectangle width="120" height="30" as="alternateBounds" />
          </mxGeometry>
        </mxCell>
        <mxCell id="rD9o9LRUl3aZi4QYc7Sl-76" value="" style="shape=tableRow;horizontal=0;startSize=0;swimlaneHead=0;swimlaneBody=0;fillColor=none;collapsible=0;dropTarget=0;points=[[0,0.5],[1,0.5]];portConstraint=eastwest;top=0;left=0;right=0;bottom=0;html=1;" parent="rD9o9LRUl3aZi4QYc7Sl-66" vertex="1">
          <mxGeometry y="120" width="180" height="30" as="geometry" />
        </mxCell>
        <mxCell id="rD9o9LRUl3aZi4QYc7Sl-77" value="" style="shape=partialRectangle;connectable=0;fillColor=none;top=0;left=0;bottom=0;right=0;editable=1;overflow=hidden;html=1;whiteSpace=wrap;" parent="rD9o9LRUl3aZi4QYc7Sl-76" vertex="1">
          <mxGeometry width="60" height="30" as="geometry">
            <mxRectangle width="60" height="30" as="alternateBounds" />
          </mxGeometry>
        </mxCell>
        <mxCell id="rD9o9LRUl3aZi4QYc7Sl-78" value="Email" style="shape=partialRectangle;connectable=0;fillColor=none;top=0;left=0;bottom=0;right=0;align=left;spacingLeft=6;overflow=hidden;html=1;whiteSpace=wrap;" parent="rD9o9LRUl3aZi4QYc7Sl-76" vertex="1">
          <mxGeometry x="60" width="120" height="30" as="geometry">
            <mxRectangle width="120" height="30" as="alternateBounds" />
          </mxGeometry>
        </mxCell>
        <mxCell id="rD9o9LRUl3aZi4QYc7Sl-166" style="shape=tableRow;horizontal=0;startSize=0;swimlaneHead=0;swimlaneBody=0;fillColor=none;collapsible=0;dropTarget=0;points=[[0,0.5],[1,0.5]];portConstraint=eastwest;top=0;left=0;right=0;bottom=0;html=1;" parent="rD9o9LRUl3aZi4QYc7Sl-66" vertex="1">
          <mxGeometry y="150" width="180" height="30" as="geometry" />
        </mxCell>
        <mxCell id="rD9o9LRUl3aZi4QYc7Sl-167" style="shape=partialRectangle;connectable=0;fillColor=none;top=0;left=0;bottom=0;right=0;editable=1;overflow=hidden;html=1;whiteSpace=wrap;" parent="rD9o9LRUl3aZi4QYc7Sl-166" vertex="1">
          <mxGeometry width="60" height="30" as="geometry">
            <mxRectangle width="60" height="30" as="alternateBounds" />
          </mxGeometry>
        </mxCell>
        <mxCell id="rD9o9LRUl3aZi4QYc7Sl-168" value="Senha" style="shape=partialRectangle;connectable=0;fillColor=none;top=0;left=0;bottom=0;right=0;align=left;spacingLeft=6;overflow=hidden;html=1;whiteSpace=wrap;" parent="rD9o9LRUl3aZi4QYc7Sl-166" vertex="1">
          <mxGeometry x="60" width="120" height="30" as="geometry">
            <mxRectangle width="120" height="30" as="alternateBounds" />
          </mxGeometry>
        </mxCell>
        <mxCell id="rD9o9LRUl3aZi4QYc7Sl-79" value="Eventos" style="shape=table;startSize=30;container=1;collapsible=1;childLayout=tableLayout;fixedRows=1;rowLines=0;fontStyle=1;align=center;resizeLast=1;html=1;whiteSpace=wrap;fillColor=#fff2cc;strokeColor=#d6b656;" parent="1" vertex="1">
          <mxGeometry x="341.5" y="1190" width="180" height="210" as="geometry" />
        </mxCell>
        <mxCell id="rD9o9LRUl3aZi4QYc7Sl-80" value="" style="shape=tableRow;horizontal=0;startSize=0;swimlaneHead=0;swimlaneBody=0;fillColor=none;collapsible=0;dropTarget=0;points=[[0,0.5],[1,0.5]];portConstraint=eastwest;top=0;left=0;right=0;bottom=0;html=1;" parent="rD9o9LRUl3aZi4QYc7Sl-79" vertex="1">
          <mxGeometry y="30" width="180" height="30" as="geometry" />
        </mxCell>
        <mxCell id="rD9o9LRUl3aZi4QYc7Sl-81" value="PK" style="shape=partialRectangle;connectable=0;fillColor=none;top=0;left=0;bottom=0;right=0;fontStyle=1;overflow=hidden;html=1;whiteSpace=wrap;" parent="rD9o9LRUl3aZi4QYc7Sl-80" vertex="1">
          <mxGeometry width="60" height="30" as="geometry">
            <mxRectangle width="60" height="30" as="alternateBounds" />
          </mxGeometry>
        </mxCell>
        <mxCell id="rD9o9LRUl3aZi4QYc7Sl-82" value="IdEventos" style="shape=partialRectangle;connectable=0;fillColor=none;top=0;left=0;bottom=0;right=0;align=left;spacingLeft=6;fontStyle=5;overflow=hidden;html=1;whiteSpace=wrap;" parent="rD9o9LRUl3aZi4QYc7Sl-80" vertex="1">
          <mxGeometry x="60" width="120" height="30" as="geometry">
            <mxRectangle width="120" height="30" as="alternateBounds" />
          </mxGeometry>
        </mxCell>
        <mxCell id="9bbt2H4-ovCzPWeeyR1v-1" style="shape=tableRow;horizontal=0;startSize=0;swimlaneHead=0;swimlaneBody=0;fillColor=none;collapsible=0;dropTarget=0;points=[[0,0.5],[1,0.5]];portConstraint=eastwest;top=0;left=0;right=0;bottom=0;html=1;" parent="rD9o9LRUl3aZi4QYc7Sl-79" vertex="1">
          <mxGeometry y="60" width="180" height="30" as="geometry" />
        </mxCell>
        <mxCell id="9bbt2H4-ovCzPWeeyR1v-2" value="FK 1" style="shape=partialRectangle;connectable=0;fillColor=none;top=0;left=0;bottom=0;right=0;fontStyle=1;overflow=hidden;html=1;whiteSpace=wrap;" parent="9bbt2H4-ovCzPWeeyR1v-1" vertex="1">
          <mxGeometry width="60" height="30" as="geometry">
            <mxRectangle width="60" height="30" as="alternateBounds" />
          </mxGeometry>
        </mxCell>
        <mxCell id="9bbt2H4-ovCzPWeeyR1v-3" value="IdTiposDeEventos" style="shape=partialRectangle;connectable=0;fillColor=none;top=0;left=0;bottom=0;right=0;align=left;spacingLeft=6;fontStyle=5;overflow=hidden;html=1;whiteSpace=wrap;" parent="9bbt2H4-ovCzPWeeyR1v-1" vertex="1">
          <mxGeometry x="60" width="120" height="30" as="geometry">
            <mxRectangle width="120" height="30" as="alternateBounds" />
          </mxGeometry>
        </mxCell>
        <mxCell id="rD9o9LRUl3aZi4QYc7Sl-83" value="" style="shape=tableRow;horizontal=0;startSize=0;swimlaneHead=0;swimlaneBody=0;fillColor=none;collapsible=0;dropTarget=0;points=[[0,0.5],[1,0.5]];portConstraint=eastwest;top=0;left=0;right=0;bottom=1;html=1;" parent="rD9o9LRUl3aZi4QYc7Sl-79" vertex="1">
          <mxGeometry y="90" width="180" height="30" as="geometry" />
        </mxCell>
        <mxCell id="rD9o9LRUl3aZi4QYc7Sl-84" value="FK 2" style="shape=partialRectangle;connectable=0;fillColor=none;top=0;left=0;bottom=0;right=0;fontStyle=1;overflow=hidden;html=1;whiteSpace=wrap;" parent="rD9o9LRUl3aZi4QYc7Sl-83" vertex="1">
          <mxGeometry width="60" height="30" as="geometry">
            <mxRectangle width="60" height="30" as="alternateBounds" />
          </mxGeometry>
        </mxCell>
        <mxCell id="rD9o9LRUl3aZi4QYc7Sl-85" value="IdInstituicao" style="shape=partialRectangle;connectable=0;fillColor=none;top=0;left=0;bottom=0;right=0;align=left;spacingLeft=6;fontStyle=5;overflow=hidden;html=1;whiteSpace=wrap;" parent="rD9o9LRUl3aZi4QYc7Sl-83" vertex="1">
          <mxGeometry x="60" width="120" height="30" as="geometry">
            <mxRectangle width="120" height="30" as="alternateBounds" />
          </mxGeometry>
        </mxCell>
        <mxCell id="rD9o9LRUl3aZi4QYc7Sl-86" value="" style="shape=tableRow;horizontal=0;startSize=0;swimlaneHead=0;swimlaneBody=0;fillColor=none;collapsible=0;dropTarget=0;points=[[0,0.5],[1,0.5]];portConstraint=eastwest;top=0;left=0;right=0;bottom=0;html=1;" parent="rD9o9LRUl3aZi4QYc7Sl-79" vertex="1">
          <mxGeometry y="120" width="180" height="30" as="geometry" />
        </mxCell>
        <mxCell id="rD9o9LRUl3aZi4QYc7Sl-87" value="" style="shape=partialRectangle;connectable=0;fillColor=none;top=0;left=0;bottom=0;right=0;editable=1;overflow=hidden;html=1;whiteSpace=wrap;" parent="rD9o9LRUl3aZi4QYc7Sl-86" vertex="1">
          <mxGeometry width="60" height="30" as="geometry">
            <mxRectangle width="60" height="30" as="alternateBounds" />
          </mxGeometry>
        </mxCell>
        <mxCell id="rD9o9LRUl3aZi4QYc7Sl-88" value="Nome" style="shape=partialRectangle;connectable=0;fillColor=none;top=0;left=0;bottom=0;right=0;align=left;spacingLeft=6;overflow=hidden;html=1;whiteSpace=wrap;" parent="rD9o9LRUl3aZi4QYc7Sl-86" vertex="1">
          <mxGeometry x="60" width="120" height="30" as="geometry">
            <mxRectangle width="120" height="30" as="alternateBounds" />
          </mxGeometry>
        </mxCell>
        <mxCell id="rD9o9LRUl3aZi4QYc7Sl-89" value="" style="shape=tableRow;horizontal=0;startSize=0;swimlaneHead=0;swimlaneBody=0;fillColor=none;collapsible=0;dropTarget=0;points=[[0,0.5],[1,0.5]];portConstraint=eastwest;top=0;left=0;right=0;bottom=0;html=1;" parent="rD9o9LRUl3aZi4QYc7Sl-79" vertex="1">
          <mxGeometry y="150" width="180" height="30" as="geometry" />
        </mxCell>
        <mxCell id="rD9o9LRUl3aZi4QYc7Sl-90" value="" style="shape=partialRectangle;connectable=0;fillColor=none;top=0;left=0;bottom=0;right=0;editable=1;overflow=hidden;html=1;whiteSpace=wrap;" parent="rD9o9LRUl3aZi4QYc7Sl-89" vertex="1">
          <mxGeometry width="60" height="30" as="geometry">
            <mxRectangle width="60" height="30" as="alternateBounds" />
          </mxGeometry>
        </mxCell>
        <mxCell id="rD9o9LRUl3aZi4QYc7Sl-91" value="Descricao" style="shape=partialRectangle;connectable=0;fillColor=none;top=0;left=0;bottom=0;right=0;align=left;spacingLeft=6;overflow=hidden;html=1;whiteSpace=wrap;" parent="rD9o9LRUl3aZi4QYc7Sl-89" vertex="1">
          <mxGeometry x="60" width="120" height="30" as="geometry">
            <mxRectangle width="120" height="30" as="alternateBounds" />
          </mxGeometry>
        </mxCell>
        <mxCell id="rD9o9LRUl3aZi4QYc7Sl-183" style="shape=tableRow;horizontal=0;startSize=0;swimlaneHead=0;swimlaneBody=0;fillColor=none;collapsible=0;dropTarget=0;points=[[0,0.5],[1,0.5]];portConstraint=eastwest;top=0;left=0;right=0;bottom=0;html=1;" parent="rD9o9LRUl3aZi4QYc7Sl-79" vertex="1">
          <mxGeometry y="180" width="180" height="30" as="geometry" />
        </mxCell>
        <mxCell id="rD9o9LRUl3aZi4QYc7Sl-184" style="shape=partialRectangle;connectable=0;fillColor=none;top=0;left=0;bottom=0;right=0;editable=1;overflow=hidden;html=1;whiteSpace=wrap;" parent="rD9o9LRUl3aZi4QYc7Sl-183" vertex="1">
          <mxGeometry width="60" height="30" as="geometry">
            <mxRectangle width="60" height="30" as="alternateBounds" />
          </mxGeometry>
        </mxCell>
        <mxCell id="rD9o9LRUl3aZi4QYc7Sl-185" value="DataEvento" style="shape=partialRectangle;connectable=0;fillColor=none;top=0;left=0;bottom=0;right=0;align=left;spacingLeft=6;overflow=hidden;html=1;whiteSpace=wrap;" parent="rD9o9LRUl3aZi4QYc7Sl-183" vertex="1">
          <mxGeometry x="60" width="120" height="30" as="geometry">
            <mxRectangle width="120" height="30" as="alternateBounds" />
          </mxGeometry>
        </mxCell>
        <mxCell id="rD9o9LRUl3aZi4QYc7Sl-92" value="TiposDeEventos" style="shape=table;startSize=30;container=1;collapsible=1;childLayout=tableLayout;fixedRows=1;rowLines=0;fontStyle=1;align=center;resizeLast=1;html=1;fillColor=#fff2cc;strokeColor=#d6b656;" parent="1" vertex="1">
          <mxGeometry x="622.5" y="1330" width="180" height="90" as="geometry" />
        </mxCell>
        <mxCell id="rD9o9LRUl3aZi4QYc7Sl-93" value="" style="shape=tableRow;horizontal=0;startSize=0;swimlaneHead=0;swimlaneBody=0;fillColor=none;collapsible=0;dropTarget=0;points=[[0,0.5],[1,0.5]];portConstraint=eastwest;top=0;left=0;right=0;bottom=1;" parent="rD9o9LRUl3aZi4QYc7Sl-92" vertex="1">
          <mxGeometry y="30" width="180" height="30" as="geometry" />
        </mxCell>
        <mxCell id="rD9o9LRUl3aZi4QYc7Sl-94" value="PK" style="shape=partialRectangle;connectable=0;fillColor=none;top=0;left=0;bottom=0;right=0;fontStyle=1;overflow=hidden;whiteSpace=wrap;html=1;" parent="rD9o9LRUl3aZi4QYc7Sl-93" vertex="1">
          <mxGeometry width="30" height="30" as="geometry">
            <mxRectangle width="30" height="30" as="alternateBounds" />
          </mxGeometry>
        </mxCell>
        <mxCell id="rD9o9LRUl3aZi4QYc7Sl-95" value="IdTiposDeEventos" style="shape=partialRectangle;connectable=0;fillColor=none;top=0;left=0;bottom=0;right=0;align=left;spacingLeft=6;fontStyle=5;overflow=hidden;whiteSpace=wrap;html=1;" parent="rD9o9LRUl3aZi4QYc7Sl-93" vertex="1">
          <mxGeometry x="30" width="150" height="30" as="geometry">
            <mxRectangle width="150" height="30" as="alternateBounds" />
          </mxGeometry>
        </mxCell>
        <mxCell id="rD9o9LRUl3aZi4QYc7Sl-96" value="" style="shape=tableRow;horizontal=0;startSize=0;swimlaneHead=0;swimlaneBody=0;fillColor=none;collapsible=0;dropTarget=0;points=[[0,0.5],[1,0.5]];portConstraint=eastwest;top=0;left=0;right=0;bottom=0;" parent="rD9o9LRUl3aZi4QYc7Sl-92" vertex="1">
          <mxGeometry y="60" width="180" height="30" as="geometry" />
        </mxCell>
        <mxCell id="rD9o9LRUl3aZi4QYc7Sl-97" value="" style="shape=partialRectangle;connectable=0;fillColor=none;top=0;left=0;bottom=0;right=0;editable=1;overflow=hidden;whiteSpace=wrap;html=1;" parent="rD9o9LRUl3aZi4QYc7Sl-96" vertex="1">
          <mxGeometry width="30" height="30" as="geometry">
            <mxRectangle width="30" height="30" as="alternateBounds" />
          </mxGeometry>
        </mxCell>
        <mxCell id="rD9o9LRUl3aZi4QYc7Sl-98" value="Titulo" style="shape=partialRectangle;connectable=0;fillColor=none;top=0;left=0;bottom=0;right=0;align=left;spacingLeft=6;overflow=hidden;whiteSpace=wrap;html=1;" parent="rD9o9LRUl3aZi4QYc7Sl-96" vertex="1">
          <mxGeometry x="30" width="150" height="30" as="geometry">
            <mxRectangle width="150" height="30" as="alternateBounds" />
          </mxGeometry>
        </mxCell>
        <mxCell id="rD9o9LRUl3aZi4QYc7Sl-105" value="Instituicao" style="shape=table;startSize=30;container=1;collapsible=1;childLayout=tableLayout;fixedRows=1;rowLines=0;fontStyle=1;align=center;resizeLast=1;html=1;fillColor=#fff2cc;strokeColor=#d6b656;" parent="1" vertex="1">
          <mxGeometry x="622.5" y="1120" width="180" height="150" as="geometry" />
        </mxCell>
        <mxCell id="rD9o9LRUl3aZi4QYc7Sl-106" value="" style="shape=tableRow;horizontal=0;startSize=0;swimlaneHead=0;swimlaneBody=0;fillColor=none;collapsible=0;dropTarget=0;points=[[0,0.5],[1,0.5]];portConstraint=eastwest;top=0;left=0;right=0;bottom=1;" parent="rD9o9LRUl3aZi4QYc7Sl-105" vertex="1">
          <mxGeometry y="30" width="180" height="30" as="geometry" />
        </mxCell>
        <mxCell id="rD9o9LRUl3aZi4QYc7Sl-107" value="PK" style="shape=partialRectangle;connectable=0;fillColor=none;top=0;left=0;bottom=0;right=0;fontStyle=1;overflow=hidden;whiteSpace=wrap;html=1;" parent="rD9o9LRUl3aZi4QYc7Sl-106" vertex="1">
          <mxGeometry width="30" height="30" as="geometry">
            <mxRectangle width="30" height="30" as="alternateBounds" />
          </mxGeometry>
        </mxCell>
        <mxCell id="rD9o9LRUl3aZi4QYc7Sl-108" value="IdInstituicao" style="shape=partialRectangle;connectable=0;fillColor=none;top=0;left=0;bottom=0;right=0;align=left;spacingLeft=6;fontStyle=5;overflow=hidden;whiteSpace=wrap;html=1;" parent="rD9o9LRUl3aZi4QYc7Sl-106" vertex="1">
          <mxGeometry x="30" width="150" height="30" as="geometry">
            <mxRectangle width="150" height="30" as="alternateBounds" />
          </mxGeometry>
        </mxCell>
        <mxCell id="rD9o9LRUl3aZi4QYc7Sl-109" value="" style="shape=tableRow;horizontal=0;startSize=0;swimlaneHead=0;swimlaneBody=0;fillColor=none;collapsible=0;dropTarget=0;points=[[0,0.5],[1,0.5]];portConstraint=eastwest;top=0;left=0;right=0;bottom=0;" parent="rD9o9LRUl3aZi4QYc7Sl-105" vertex="1">
          <mxGeometry y="60" width="180" height="30" as="geometry" />
        </mxCell>
        <mxCell id="rD9o9LRUl3aZi4QYc7Sl-110" value="" style="shape=partialRectangle;connectable=0;fillColor=none;top=0;left=0;bottom=0;right=0;editable=1;overflow=hidden;whiteSpace=wrap;html=1;" parent="rD9o9LRUl3aZi4QYc7Sl-109" vertex="1">
          <mxGeometry width="30" height="30" as="geometry">
            <mxRectangle width="30" height="30" as="alternateBounds" />
          </mxGeometry>
        </mxCell>
        <mxCell id="rD9o9LRUl3aZi4QYc7Sl-111" value="NomeFantasia" style="shape=partialRectangle;connectable=0;fillColor=none;top=0;left=0;bottom=0;right=0;align=left;spacingLeft=6;overflow=hidden;whiteSpace=wrap;html=1;" parent="rD9o9LRUl3aZi4QYc7Sl-109" vertex="1">
          <mxGeometry x="30" width="150" height="30" as="geometry">
            <mxRectangle width="150" height="30" as="alternateBounds" />
          </mxGeometry>
        </mxCell>
        <mxCell id="rD9o9LRUl3aZi4QYc7Sl-112" value="" style="shape=tableRow;horizontal=0;startSize=0;swimlaneHead=0;swimlaneBody=0;fillColor=none;collapsible=0;dropTarget=0;points=[[0,0.5],[1,0.5]];portConstraint=eastwest;top=0;left=0;right=0;bottom=0;" parent="rD9o9LRUl3aZi4QYc7Sl-105" vertex="1">
          <mxGeometry y="90" width="180" height="30" as="geometry" />
        </mxCell>
        <mxCell id="rD9o9LRUl3aZi4QYc7Sl-113" value="" style="shape=partialRectangle;connectable=0;fillColor=none;top=0;left=0;bottom=0;right=0;editable=1;overflow=hidden;whiteSpace=wrap;html=1;" parent="rD9o9LRUl3aZi4QYc7Sl-112" vertex="1">
          <mxGeometry width="30" height="30" as="geometry">
            <mxRectangle width="30" height="30" as="alternateBounds" />
          </mxGeometry>
        </mxCell>
        <mxCell id="rD9o9LRUl3aZi4QYc7Sl-114" value="Endereco" style="shape=partialRectangle;connectable=0;fillColor=none;top=0;left=0;bottom=0;right=0;align=left;spacingLeft=6;overflow=hidden;whiteSpace=wrap;html=1;" parent="rD9o9LRUl3aZi4QYc7Sl-112" vertex="1">
          <mxGeometry x="30" width="150" height="30" as="geometry">
            <mxRectangle width="150" height="30" as="alternateBounds" />
          </mxGeometry>
        </mxCell>
        <mxCell id="rD9o9LRUl3aZi4QYc7Sl-115" value="" style="shape=tableRow;horizontal=0;startSize=0;swimlaneHead=0;swimlaneBody=0;fillColor=none;collapsible=0;dropTarget=0;points=[[0,0.5],[1,0.5]];portConstraint=eastwest;top=0;left=0;right=0;bottom=0;" parent="rD9o9LRUl3aZi4QYc7Sl-105" vertex="1">
          <mxGeometry y="120" width="180" height="30" as="geometry" />
        </mxCell>
        <mxCell id="rD9o9LRUl3aZi4QYc7Sl-116" value="" style="shape=partialRectangle;connectable=0;fillColor=none;top=0;left=0;bottom=0;right=0;editable=1;overflow=hidden;whiteSpace=wrap;html=1;" parent="rD9o9LRUl3aZi4QYc7Sl-115" vertex="1">
          <mxGeometry width="30" height="30" as="geometry">
            <mxRectangle width="30" height="30" as="alternateBounds" />
          </mxGeometry>
        </mxCell>
        <mxCell id="rD9o9LRUl3aZi4QYc7Sl-117" value="CNPJ" style="shape=partialRectangle;connectable=0;fillColor=none;top=0;left=0;bottom=0;right=0;align=left;spacingLeft=6;overflow=hidden;whiteSpace=wrap;html=1;" parent="rD9o9LRUl3aZi4QYc7Sl-115" vertex="1">
          <mxGeometry x="30" width="150" height="30" as="geometry">
            <mxRectangle width="150" height="30" as="alternateBounds" />
          </mxGeometry>
        </mxCell>
        <mxCell id="rD9o9LRUl3aZi4QYc7Sl-118" value="ComentarioEvento" style="shape=table;startSize=30;container=1;collapsible=1;childLayout=tableLayout;fixedRows=1;rowLines=0;fontStyle=1;align=center;resizeLast=1;html=1;whiteSpace=wrap;fillColor=#fff2cc;strokeColor=#d6b656;" parent="1" vertex="1">
          <mxGeometry x="69" y="1105" width="180" height="180" as="geometry" />
        </mxCell>
        <mxCell id="rD9o9LRUl3aZi4QYc7Sl-119" value="" style="shape=tableRow;horizontal=0;startSize=0;swimlaneHead=0;swimlaneBody=0;fillColor=none;collapsible=0;dropTarget=0;points=[[0,0.5],[1,0.5]];portConstraint=eastwest;top=0;left=0;right=0;bottom=0;html=1;" parent="rD9o9LRUl3aZi4QYc7Sl-118" vertex="1">
          <mxGeometry y="30" width="180" height="30" as="geometry" />
        </mxCell>
        <mxCell id="rD9o9LRUl3aZi4QYc7Sl-120" value="PK" style="shape=partialRectangle;connectable=0;fillColor=none;top=0;left=0;bottom=0;right=0;fontStyle=1;overflow=hidden;html=1;whiteSpace=wrap;" parent="rD9o9LRUl3aZi4QYc7Sl-119" vertex="1">
          <mxGeometry width="60" height="30" as="geometry">
            <mxRectangle width="60" height="30" as="alternateBounds" />
          </mxGeometry>
        </mxCell>
        <mxCell id="rD9o9LRUl3aZi4QYc7Sl-121" value="IdComentario" style="shape=partialRectangle;connectable=0;fillColor=none;top=0;left=0;bottom=0;right=0;align=left;spacingLeft=6;fontStyle=5;overflow=hidden;html=1;whiteSpace=wrap;" parent="rD9o9LRUl3aZi4QYc7Sl-119" vertex="1">
          <mxGeometry x="60" width="120" height="30" as="geometry">
            <mxRectangle width="120" height="30" as="alternateBounds" />
          </mxGeometry>
        </mxCell>
        <mxCell id="rD9o9LRUl3aZi4QYc7Sl-163" style="shape=tableRow;horizontal=0;startSize=0;swimlaneHead=0;swimlaneBody=0;fillColor=none;collapsible=0;dropTarget=0;points=[[0,0.5],[1,0.5]];portConstraint=eastwest;top=0;left=0;right=0;bottom=0;html=1;" parent="rD9o9LRUl3aZi4QYc7Sl-118" vertex="1">
          <mxGeometry y="60" width="180" height="30" as="geometry" />
        </mxCell>
        <mxCell id="rD9o9LRUl3aZi4QYc7Sl-164" value="FK 1" style="shape=partialRectangle;connectable=0;fillColor=none;top=0;left=0;bottom=0;right=0;fontStyle=1;overflow=hidden;html=1;whiteSpace=wrap;" parent="rD9o9LRUl3aZi4QYc7Sl-163" vertex="1">
          <mxGeometry width="60" height="30" as="geometry">
            <mxRectangle width="60" height="30" as="alternateBounds" />
          </mxGeometry>
        </mxCell>
        <mxCell id="rD9o9LRUl3aZi4QYc7Sl-165" value="IdUsuario" style="shape=partialRectangle;connectable=0;fillColor=none;top=0;left=0;bottom=0;right=0;align=left;spacingLeft=6;fontStyle=5;overflow=hidden;html=1;whiteSpace=wrap;" parent="rD9o9LRUl3aZi4QYc7Sl-163" vertex="1">
          <mxGeometry x="60" width="120" height="30" as="geometry">
            <mxRectangle width="120" height="30" as="alternateBounds" />
          </mxGeometry>
        </mxCell>
        <mxCell id="rD9o9LRUl3aZi4QYc7Sl-122" value="" style="shape=tableRow;horizontal=0;startSize=0;swimlaneHead=0;swimlaneBody=0;fillColor=none;collapsible=0;dropTarget=0;points=[[0,0.5],[1,0.5]];portConstraint=eastwest;top=0;left=0;right=0;bottom=1;html=1;" parent="rD9o9LRUl3aZi4QYc7Sl-118" vertex="1">
          <mxGeometry y="90" width="180" height="30" as="geometry" />
        </mxCell>
        <mxCell id="rD9o9LRUl3aZi4QYc7Sl-123" value="FK 2" style="shape=partialRectangle;connectable=0;fillColor=none;top=0;left=0;bottom=0;right=0;fontStyle=1;overflow=hidden;html=1;whiteSpace=wrap;" parent="rD9o9LRUl3aZi4QYc7Sl-122" vertex="1">
          <mxGeometry width="60" height="30" as="geometry">
            <mxRectangle width="60" height="30" as="alternateBounds" />
          </mxGeometry>
        </mxCell>
        <mxCell id="rD9o9LRUl3aZi4QYc7Sl-124" value="IdEventos" style="shape=partialRectangle;connectable=0;fillColor=none;top=0;left=0;bottom=0;right=0;align=left;spacingLeft=6;fontStyle=5;overflow=hidden;html=1;whiteSpace=wrap;" parent="rD9o9LRUl3aZi4QYc7Sl-122" vertex="1">
          <mxGeometry x="60" width="120" height="30" as="geometry">
            <mxRectangle width="120" height="30" as="alternateBounds" />
          </mxGeometry>
        </mxCell>
        <mxCell id="rD9o9LRUl3aZi4QYc7Sl-125" value="" style="shape=tableRow;horizontal=0;startSize=0;swimlaneHead=0;swimlaneBody=0;fillColor=none;collapsible=0;dropTarget=0;points=[[0,0.5],[1,0.5]];portConstraint=eastwest;top=0;left=0;right=0;bottom=0;html=1;" parent="rD9o9LRUl3aZi4QYc7Sl-118" vertex="1">
          <mxGeometry y="120" width="180" height="30" as="geometry" />
        </mxCell>
        <mxCell id="rD9o9LRUl3aZi4QYc7Sl-126" value="" style="shape=partialRectangle;connectable=0;fillColor=none;top=0;left=0;bottom=0;right=0;editable=1;overflow=hidden;html=1;whiteSpace=wrap;" parent="rD9o9LRUl3aZi4QYc7Sl-125" vertex="1">
          <mxGeometry width="60" height="30" as="geometry">
            <mxRectangle width="60" height="30" as="alternateBounds" />
          </mxGeometry>
        </mxCell>
        <mxCell id="rD9o9LRUl3aZi4QYc7Sl-127" value="Descricao" style="shape=partialRectangle;connectable=0;fillColor=none;top=0;left=0;bottom=0;right=0;align=left;spacingLeft=6;overflow=hidden;html=1;whiteSpace=wrap;" parent="rD9o9LRUl3aZi4QYc7Sl-125" vertex="1">
          <mxGeometry x="60" width="120" height="30" as="geometry">
            <mxRectangle width="120" height="30" as="alternateBounds" />
          </mxGeometry>
        </mxCell>
        <mxCell id="rD9o9LRUl3aZi4QYc7Sl-128" value="" style="shape=tableRow;horizontal=0;startSize=0;swimlaneHead=0;swimlaneBody=0;fillColor=none;collapsible=0;dropTarget=0;points=[[0,0.5],[1,0.5]];portConstraint=eastwest;top=0;left=0;right=0;bottom=0;html=1;" parent="rD9o9LRUl3aZi4QYc7Sl-118" vertex="1">
          <mxGeometry y="150" width="180" height="30" as="geometry" />
        </mxCell>
        <mxCell id="rD9o9LRUl3aZi4QYc7Sl-129" value="" style="shape=partialRectangle;connectable=0;fillColor=none;top=0;left=0;bottom=0;right=0;editable=1;overflow=hidden;html=1;whiteSpace=wrap;" parent="rD9o9LRUl3aZi4QYc7Sl-128" vertex="1">
          <mxGeometry width="60" height="30" as="geometry">
            <mxRectangle width="60" height="30" as="alternateBounds" />
          </mxGeometry>
        </mxCell>
        <mxCell id="rD9o9LRUl3aZi4QYc7Sl-130" value="Exibe" style="shape=partialRectangle;connectable=0;fillColor=none;top=0;left=0;bottom=0;right=0;align=left;spacingLeft=6;overflow=hidden;html=1;whiteSpace=wrap;" parent="rD9o9LRUl3aZi4QYc7Sl-128" vertex="1">
          <mxGeometry x="60" width="120" height="30" as="geometry">
            <mxRectangle width="120" height="30" as="alternateBounds" />
          </mxGeometry>
        </mxCell>
        <mxCell id="rD9o9LRUl3aZi4QYc7Sl-131" value="PresencasEvento" style="shape=table;startSize=30;container=1;collapsible=1;childLayout=tableLayout;fixedRows=1;rowLines=0;fontStyle=1;align=center;resizeLast=1;html=1;whiteSpace=wrap;fillColor=#fff2cc;strokeColor=#d6b656;" parent="1" vertex="1">
          <mxGeometry x="514.25" y="925" width="186.49999999999977" height="150" as="geometry" />
        </mxCell>
        <mxCell id="rD9o9LRUl3aZi4QYc7Sl-132" value="" style="shape=tableRow;horizontal=0;startSize=0;swimlaneHead=0;swimlaneBody=0;fillColor=none;collapsible=0;dropTarget=0;points=[[0,0.5],[1,0.5]];portConstraint=eastwest;top=0;left=0;right=0;bottom=0;html=1;" parent="rD9o9LRUl3aZi4QYc7Sl-131" vertex="1">
          <mxGeometry y="30" width="186.49999999999977" height="30" as="geometry" />
        </mxCell>
        <mxCell id="rD9o9LRUl3aZi4QYc7Sl-133" value="PK" style="shape=partialRectangle;connectable=0;fillColor=none;top=0;left=0;bottom=0;right=0;fontStyle=1;overflow=hidden;html=1;whiteSpace=wrap;" parent="rD9o9LRUl3aZi4QYc7Sl-132" vertex="1">
          <mxGeometry width="60" height="30" as="geometry">
            <mxRectangle width="60" height="30" as="alternateBounds" />
          </mxGeometry>
        </mxCell>
        <mxCell id="rD9o9LRUl3aZi4QYc7Sl-134" value="IdPresencasEvento" style="shape=partialRectangle;connectable=0;fillColor=none;top=0;left=0;bottom=0;right=0;align=left;spacingLeft=6;fontStyle=5;overflow=hidden;html=1;whiteSpace=wrap;" parent="rD9o9LRUl3aZi4QYc7Sl-132" vertex="1">
          <mxGeometry x="60" width="126.49999999999977" height="30" as="geometry">
            <mxRectangle width="126.49999999999977" height="30" as="alternateBounds" />
          </mxGeometry>
        </mxCell>
        <mxCell id="rD9o9LRUl3aZi4QYc7Sl-176" style="shape=tableRow;horizontal=0;startSize=0;swimlaneHead=0;swimlaneBody=0;fillColor=none;collapsible=0;dropTarget=0;points=[[0,0.5],[1,0.5]];portConstraint=eastwest;top=0;left=0;right=0;bottom=0;html=1;" parent="rD9o9LRUl3aZi4QYc7Sl-131" vertex="1">
          <mxGeometry y="60" width="186.49999999999977" height="30" as="geometry" />
        </mxCell>
        <mxCell id="rD9o9LRUl3aZi4QYc7Sl-177" value="FK 1" style="shape=partialRectangle;connectable=0;fillColor=none;top=0;left=0;bottom=0;right=0;fontStyle=1;overflow=hidden;html=1;whiteSpace=wrap;" parent="rD9o9LRUl3aZi4QYc7Sl-176" vertex="1">
          <mxGeometry width="60" height="30" as="geometry">
            <mxRectangle width="60" height="30" as="alternateBounds" />
          </mxGeometry>
        </mxCell>
        <mxCell id="rD9o9LRUl3aZi4QYc7Sl-178" value="IdUsuario" style="shape=partialRectangle;connectable=0;fillColor=none;top=0;left=0;bottom=0;right=0;align=left;spacingLeft=6;fontStyle=5;overflow=hidden;html=1;whiteSpace=wrap;" parent="rD9o9LRUl3aZi4QYc7Sl-176" vertex="1">
          <mxGeometry x="60" width="126.49999999999977" height="30" as="geometry">
            <mxRectangle width="126.49999999999977" height="30" as="alternateBounds" />
          </mxGeometry>
        </mxCell>
        <mxCell id="rD9o9LRUl3aZi4QYc7Sl-135" value="" style="shape=tableRow;horizontal=0;startSize=0;swimlaneHead=0;swimlaneBody=0;fillColor=none;collapsible=0;dropTarget=0;points=[[0,0.5],[1,0.5]];portConstraint=eastwest;top=0;left=0;right=0;bottom=1;html=1;" parent="rD9o9LRUl3aZi4QYc7Sl-131" vertex="1">
          <mxGeometry y="90" width="186.49999999999977" height="30" as="geometry" />
        </mxCell>
        <mxCell id="rD9o9LRUl3aZi4QYc7Sl-136" value="FK 2" style="shape=partialRectangle;connectable=0;fillColor=none;top=0;left=0;bottom=0;right=0;fontStyle=1;overflow=hidden;html=1;whiteSpace=wrap;" parent="rD9o9LRUl3aZi4QYc7Sl-135" vertex="1">
          <mxGeometry width="60" height="30" as="geometry">
            <mxRectangle width="60" height="30" as="alternateBounds" />
          </mxGeometry>
        </mxCell>
        <mxCell id="rD9o9LRUl3aZi4QYc7Sl-137" value="IdEvento" style="shape=partialRectangle;connectable=0;fillColor=none;top=0;left=0;bottom=0;right=0;align=left;spacingLeft=6;fontStyle=5;overflow=hidden;html=1;whiteSpace=wrap;" parent="rD9o9LRUl3aZi4QYc7Sl-135" vertex="1">
          <mxGeometry x="60" width="126.49999999999977" height="30" as="geometry">
            <mxRectangle width="126.49999999999977" height="30" as="alternateBounds" />
          </mxGeometry>
        </mxCell>
        <mxCell id="rD9o9LRUl3aZi4QYc7Sl-138" value="" style="shape=tableRow;horizontal=0;startSize=0;swimlaneHead=0;swimlaneBody=0;fillColor=none;collapsible=0;dropTarget=0;points=[[0,0.5],[1,0.5]];portConstraint=eastwest;top=0;left=0;right=0;bottom=0;html=1;" parent="rD9o9LRUl3aZi4QYc7Sl-131" vertex="1">
          <mxGeometry y="120" width="186.49999999999977" height="30" as="geometry" />
        </mxCell>
        <mxCell id="rD9o9LRUl3aZi4QYc7Sl-139" value="" style="shape=partialRectangle;connectable=0;fillColor=none;top=0;left=0;bottom=0;right=0;editable=1;overflow=hidden;html=1;whiteSpace=wrap;" parent="rD9o9LRUl3aZi4QYc7Sl-138" vertex="1">
          <mxGeometry width="60" height="30" as="geometry">
            <mxRectangle width="60" height="30" as="alternateBounds" />
          </mxGeometry>
        </mxCell>
        <mxCell id="rD9o9LRUl3aZi4QYc7Sl-140" value="Situacao" style="shape=partialRectangle;connectable=0;fillColor=none;top=0;left=0;bottom=0;right=0;align=left;spacingLeft=6;overflow=hidden;html=1;whiteSpace=wrap;" parent="rD9o9LRUl3aZi4QYc7Sl-138" vertex="1">
          <mxGeometry x="60" width="126.49999999999977" height="30" as="geometry">
            <mxRectangle width="126.49999999999977" height="30" as="alternateBounds" />
          </mxGeometry>
        </mxCell>
        <mxCell id="rD9o9LRUl3aZi4QYc7Sl-144" value="TiposDeUsuário" style="shape=table;startSize=30;container=1;collapsible=1;childLayout=tableLayout;fixedRows=1;rowLines=0;fontStyle=1;align=center;resizeLast=1;html=1;fillColor=#fff2cc;strokeColor=#d6b656;" parent="1" vertex="1">
          <mxGeometry x="33.5" y="780" width="180" height="90" as="geometry" />
        </mxCell>
        <mxCell id="rD9o9LRUl3aZi4QYc7Sl-145" value="" style="shape=tableRow;horizontal=0;startSize=0;swimlaneHead=0;swimlaneBody=0;fillColor=none;collapsible=0;dropTarget=0;points=[[0,0.5],[1,0.5]];portConstraint=eastwest;top=0;left=0;right=0;bottom=1;" parent="rD9o9LRUl3aZi4QYc7Sl-144" vertex="1">
          <mxGeometry y="30" width="180" height="30" as="geometry" />
        </mxCell>
        <mxCell id="rD9o9LRUl3aZi4QYc7Sl-146" value="PK" style="shape=partialRectangle;connectable=0;fillColor=none;top=0;left=0;bottom=0;right=0;fontStyle=1;overflow=hidden;whiteSpace=wrap;html=1;" parent="rD9o9LRUl3aZi4QYc7Sl-145" vertex="1">
          <mxGeometry width="30" height="30" as="geometry">
            <mxRectangle width="30" height="30" as="alternateBounds" />
          </mxGeometry>
        </mxCell>
        <mxCell id="rD9o9LRUl3aZi4QYc7Sl-147" value="IdTiposDeUsuário" style="shape=partialRectangle;connectable=0;fillColor=none;top=0;left=0;bottom=0;right=0;align=left;spacingLeft=6;fontStyle=5;overflow=hidden;whiteSpace=wrap;html=1;" parent="rD9o9LRUl3aZi4QYc7Sl-145" vertex="1">
          <mxGeometry x="30" width="150" height="30" as="geometry">
            <mxRectangle width="150" height="30" as="alternateBounds" />
          </mxGeometry>
        </mxCell>
        <mxCell id="rD9o9LRUl3aZi4QYc7Sl-148" value="" style="shape=tableRow;horizontal=0;startSize=0;swimlaneHead=0;swimlaneBody=0;fillColor=none;collapsible=0;dropTarget=0;points=[[0,0.5],[1,0.5]];portConstraint=eastwest;top=0;left=0;right=0;bottom=0;" parent="rD9o9LRUl3aZi4QYc7Sl-144" vertex="1">
          <mxGeometry y="60" width="180" height="30" as="geometry" />
        </mxCell>
        <mxCell id="rD9o9LRUl3aZi4QYc7Sl-149" value="" style="shape=partialRectangle;connectable=0;fillColor=none;top=0;left=0;bottom=0;right=0;editable=1;overflow=hidden;whiteSpace=wrap;html=1;" parent="rD9o9LRUl3aZi4QYc7Sl-148" vertex="1">
          <mxGeometry width="30" height="30" as="geometry">
            <mxRectangle width="30" height="30" as="alternateBounds" />
          </mxGeometry>
        </mxCell>
        <mxCell id="rD9o9LRUl3aZi4QYc7Sl-150" value="TituloTipoUsuario" style="shape=partialRectangle;connectable=0;fillColor=none;top=0;left=0;bottom=0;right=0;align=left;spacingLeft=6;overflow=hidden;whiteSpace=wrap;html=1;" parent="rD9o9LRUl3aZi4QYc7Sl-148" vertex="1">
          <mxGeometry x="30" width="150" height="30" as="geometry">
            <mxRectangle width="150" height="30" as="alternateBounds" />
          </mxGeometry>
        </mxCell>
        <mxCell id="rD9o9LRUl3aZi4QYc7Sl-171" value="" style="edgeStyle=entityRelationEdgeStyle;fontSize=12;html=1;endArrow=ERmany;rounded=0;entryX=0;entryY=0.5;entryDx=0;entryDy=0;exitX=1;exitY=0.5;exitDx=0;exitDy=0;" parent="1" source="rD9o9LRUl3aZi4QYc7Sl-145" target="rD9o9LRUl3aZi4QYc7Sl-70" edge="1">
          <mxGeometry width="100" height="100" relative="1" as="geometry">
            <mxPoint x="373.5" y="770" as="sourcePoint" />
            <mxPoint x="433.5" y="870" as="targetPoint" />
            <Array as="points">
              <mxPoint x="313.5" y="780" />
            </Array>
          </mxGeometry>
        </mxCell>
        <mxCell id="rD9o9LRUl3aZi4QYc7Sl-174" value="" style="edgeStyle=entityRelationEdgeStyle;fontSize=12;html=1;endArrow=ERoneToMany;rounded=0;exitX=0;exitY=0.5;exitDx=0;exitDy=0;entryX=1;entryY=0.5;entryDx=0;entryDy=0;" parent="1" source="rD9o9LRUl3aZi4QYc7Sl-80" target="rD9o9LRUl3aZi4QYc7Sl-122" edge="1">
          <mxGeometry width="100" height="100" relative="1" as="geometry">
            <mxPoint x="351.5" y="1245" as="sourcePoint" />
            <mxPoint x="313.5" y="1290" as="targetPoint" />
          </mxGeometry>
        </mxCell>
        <mxCell id="rD9o9LRUl3aZi4QYc7Sl-175" value="" style="edgeStyle=entityRelationEdgeStyle;fontSize=12;html=1;endArrow=ERoneToMany;rounded=0;" parent="1" source="rD9o9LRUl3aZi4QYc7Sl-67" target="rD9o9LRUl3aZi4QYc7Sl-163" edge="1">
          <mxGeometry width="100" height="100" relative="1" as="geometry">
            <mxPoint x="400.25" y="1290" as="sourcePoint" />
            <mxPoint x="313.5" y="1190" as="targetPoint" />
          </mxGeometry>
        </mxCell>
        <mxCell id="rD9o9LRUl3aZi4QYc7Sl-179" value="" style="edgeStyle=entityRelationEdgeStyle;fontSize=12;html=1;endArrow=ERoneToMany;rounded=0;exitX=1;exitY=0.5;exitDx=0;exitDy=0;entryX=0;entryY=0.5;entryDx=0;entryDy=0;" parent="1" source="rD9o9LRUl3aZi4QYc7Sl-67" target="rD9o9LRUl3aZi4QYc7Sl-176" edge="1">
          <mxGeometry width="100" height="100" relative="1" as="geometry">
            <mxPoint x="373.5" y="1010" as="sourcePoint" />
            <mxPoint x="473.5" y="910" as="targetPoint" />
          </mxGeometry>
        </mxCell>
        <mxCell id="rD9o9LRUl3aZi4QYc7Sl-180" value="" style="edgeStyle=entityRelationEdgeStyle;fontSize=12;html=1;endArrow=ERoneToMany;rounded=0;exitX=1;exitY=0.5;exitDx=0;exitDy=0;" parent="1" source="rD9o9LRUl3aZi4QYc7Sl-80" edge="1">
          <mxGeometry width="100" height="100" relative="1" as="geometry">
            <mxPoint x="473.5" y="1110" as="sourcePoint" />
            <mxPoint x="513.5" y="1030" as="targetPoint" />
          </mxGeometry>
        </mxCell>
        <mxCell id="rD9o9LRUl3aZi4QYc7Sl-181" value="" style="edgeStyle=entityRelationEdgeStyle;fontSize=12;html=1;endArrow=ERmany;rounded=0;exitX=0;exitY=0.5;exitDx=0;exitDy=0;entryX=1;entryY=0.5;entryDx=0;entryDy=0;" parent="1" source="rD9o9LRUl3aZi4QYc7Sl-106" target="rD9o9LRUl3aZi4QYc7Sl-83" edge="1">
          <mxGeometry width="100" height="100" relative="1" as="geometry">
            <mxPoint x="521.5" y="1390" as="sourcePoint" />
            <mxPoint x="622.5" y="1290" as="targetPoint" />
          </mxGeometry>
        </mxCell>
        <mxCell id="rD9o9LRUl3aZi4QYc7Sl-182" value="" style="edgeStyle=entityRelationEdgeStyle;fontSize=12;html=1;endArrow=ERmandOne;startArrow=ERmandOne;rounded=0;entryX=0;entryY=0.5;entryDx=0;entryDy=0;exitX=1;exitY=0.5;exitDx=0;exitDy=0;" parent="1" source="9bbt2H4-ovCzPWeeyR1v-1" target="rD9o9LRUl3aZi4QYc7Sl-93" edge="1">
          <mxGeometry width="100" height="100" relative="1" as="geometry">
            <mxPoint x="557.5" y="970" as="sourcePoint" />
            <mxPoint x="657.5" y="870" as="targetPoint" />
            <Array as="points">
              <mxPoint x="727.5" y="900" />
            </Array>
          </mxGeometry>
        </mxCell>
      </root>
    </mxGraphModel>
  </diagram>
</mxfile>
